<?xml version="1.0" standalone="no"?><!DOCTYPE svg PUBLIC "-//W3C//DTD SVG 1.1//EN" "http://www.w3.org/Graphics/SVG/1.1/DTD/svg11.dtd"><svg class="icon" width="200px" height="200.00px" viewBox="0 0 1024 1024" version="1.1" xmlns="http://www.w3.org/2000/svg"><path d="M824.888889 383.146667L703.431111 332.8A28.444444 28.444444 0 1 0 682.666667 386.37037l60.112592 24.367408L682.666667 438.328889a28.444444 28.444444 0 0 0-14.601482 37.357037 28.918519 28.918519 0 0 0 25.979259 16.213333 15.454815 15.454815 0 0 0 11.377778-3.223703L824.888889 433.398519A28.918519 28.918519 0 0 0 841.481481 407.703704 25.694815 25.694815 0 0 0 824.888889 383.146667zM549.262222 269.463704a28.444444 28.444444 0 0 0-35.745185 17.825185l-61.724444 188.397037a28.444444 28.444444 0 0 0 17.825185 35.745185 17.540741 17.540741 0 0 0 8.154074 1.611852A31.668148 31.668148 0 0 0 505.362963 493.037037l61.724444-188.302222a28.444444 28.444444 0 0 0-17.825185-35.271111zM359.253333 349.013333A30.151111 30.151111 0 0 0 322.37037 332.8l-122.216296 50.346667a30.435556 30.435556 0 0 0-17.825185 25.979259 28.444444 28.444444 0 0 0 16.213333 25.979259l120.130371 55.182222a30.056296 30.056296 0 0 0 11.377777 3.223704 28.918519 28.918519 0 0 0 25.97926-16.213333A28.444444 28.444444 0 0 0 341.333333 439.940741l-60.112592-27.591111L341.333333 387.982222c16.308148-8.154074 24.462222-24.367407 17.92-38.968889zM580.740741 817.208889H142.222222a28.444444 28.444444 0 0 0 0 56.888889h438.518519a28.444444 28.444444 0 1 0 0-56.888889z" fill="#2c2c2c" /><path d="M910.222222 134.542222v512H113.777778v-512h796.444444m0-56.888889H113.777778a56.888889 56.888889 0 0 0-56.888889 56.888889v512a56.888889 56.888889 0 0 0 56.888889 56.888889h796.444444a56.888889 56.888889 0 0 0 56.888889-56.888889v-512a56.888889 56.888889 0 0 0-56.888889-56.888889zM881.777778 817.208889H748.468148a28.444444 28.444444 0 0 0 0 56.888889H881.777778a28.444444 28.444444 0 0 0 0-56.888889z" fill="#2c2c2c" /><path d="M666.642963 946.346667a100.693333 100.693333 0 1 1 100.693333-100.693334 100.882963 100.882963 0 0 1-100.693333 100.693334z m0-144.592593a43.804444 43.804444 0 1 0 43.899259 43.899259 43.899259 43.899259 0 0 0-43.899259-43.899259z" fill="#2c2c2c" /></svg>