<?xml version="1.0" standalone="no"?><!DOCTYPE svg PUBLIC "-//W3C//DTD SVG 1.1//EN" "http://www.w3.org/Graphics/SVG/1.1/DTD/svg11.dtd"><svg class="icon" width="64px" height="64.00px" viewBox="0 0 1024 1024" version="1.1" xmlns="http://www.w3.org/2000/svg"><path d="M257.8432 875.0592H175.104a69.9904 69.9904 0 0 1-69.8368-69.9392v-368.64A69.9392 69.9392 0 0 1 175.104 366.592h99.6352a33.9968 33.9968 0 0 1 33.9456 35.2256L291.84 842.496a33.9968 33.9968 0 0 1-33.8944 32.5632zM200.6528 434.3808a27.648 27.648 0 0 0-27.5968 27.5456v317.696a27.6992 27.6992 0 0 0 27.5968 27.5968 25.6 25.6 0 0 0 25.6-24.5248L238.5408 460.8a25.6 25.6 0 0 0-25.6-26.4704z m-25.6 0M749.1072 875.0592H398.6944a71.68 71.68 0 0 1-71.68-74.3424l14.0288-365.2608a71.68 71.68 0 0 1 71.68-68.864H430.08a10.24 10.24 0 0 0 9.5232-6.7072l54.784-153.6a116.0192 116.0192 0 0 1 224.0512 55.4496l-13.3632 93.2864a10.24 10.24 0 0 0 10.24 11.5712h101.5808a101.9392 101.9392 0 0 1 101.8368 101.1712 6.2464 6.2464 0 0 1 0 1.3824l-0.6656 6.144v1.1264l-66.56 300.0832a7.8848 7.8848 0 0 0 0 1.536 101.9392 101.9392 0 0 1-101.7344 97.024z m-351.5392-142.1824a71.68 71.68 0 0 0 71.68 74.3424h280.0128A34.0992 34.0992 0 0 0 783.36 773.12l0.768-6.8096v-1.1264l66.56-298.0352a9.6256 9.6256 0 0 0 0-3.6352 34.1504 34.1504 0 0 0-33.6896-29.1328h-179.8144a10.24 10.24 0 0 1-10.24-11.5712l24.3712-170.6496a48.0768 48.0768 0 0 0-47.7184-54.9888 48.2304 48.2304 0 0 0-45.3632 32L487.5264 427.6224a10.24 10.24 0 0 1-9.5744 6.7584 71.68 71.68 0 0 0-71.68 68.8128z m-2.8672 74.3424" fill="#666666" /></svg>