<?xml version="1.0" standalone="no"?><!DOCTYPE svg PUBLIC "-//W3C//DTD SVG 1.1//EN" "http://www.w3.org/Graphics/SVG/1.1/DTD/svg11.dtd"><svg class="icon" width="128px" height="128.00px" viewBox="0 0 1024 1024" version="1.1" xmlns="http://www.w3.org/2000/svg"><path d="M918.187 140.16H309.973c-37.44 0-68.16 30.72-68.16 68.16s30.72 68.16 68.16 68.16h608.214c37.44 0 68.16-30.72 68.16-68.16s-30.72-68.16-68.16-68.16z m0 304H309.973c-37.44 0-68.16 30.72-68.16 68.16s30.72 68.16 68.16 68.16h608.214c37.44 0 68.16-30.72 68.16-68.16s-30.72-68.16-68.16-68.16z m0 306.667H309.973c-37.44 0-68.16 30.72-68.16 68.16s30.72 68.16 68.16 68.16h608.214c37.44 0 68.16-30.72 68.16-68.16s-30.72-68.16-68.16-68.16z m-813.547-609.6c-37.013 0-67.2 30.293-67.2 67.2v1.92c0 37.013 30.293 67.2 67.2 67.2 37.013 0 67.2-30.294 67.2-67.2v-1.92c0-36.907-30.187-67.2-67.2-67.2z m0 304c-37.013 0-67.2 30.293-67.2 67.2v1.92c0 37.013 30.293 67.2 67.2 67.2 37.013 0 67.2-30.294 67.2-67.2v-1.92c0-36.907-30.187-67.2-67.2-67.2z m0 306.666c-37.013 0-67.2 30.294-67.2 67.2v1.92c0 37.014 30.293 67.2 67.2 67.2 37.013 0 67.2-30.293 67.2-67.2v-1.92c0-36.906-30.187-67.2-67.2-67.2z" fill="#555555" /></svg>