<?xml version="1.0" standalone="no"?><!DOCTYPE svg PUBLIC "-//W3C//DTD SVG 1.1//EN" "http://www.w3.org/Graphics/SVG/1.1/DTD/svg11.dtd"><svg class="icon" width="32px" height="32.00px" viewBox="0 0 1024 1024" version="1.1" xmlns="http://www.w3.org/2000/svg"><path d="M697.6 633.6h-211.2c-12.8 0-25.6 0-38.4-6.4-38.4-12.8-57.6-38.4-51.2-76.8 0-32 25.6-57.6 64-64 12.8 0 32-6.4 44.8-6.4h435.2c0 6.4-6.4 6.4-6.4 12.8-64 121.6-128 236.8-192 358.4-6.4 12.8-12.8 19.2-25.6 19.2h-390.4c-12.8 0-19.2-6.4-25.6-19.2-64-115.2-128-224-192-339.2-6.4-12.8-6.4-19.2 0-32 57.6-108.8 121.6-224 179.2-332.8 6.4-12.8 12.8-12.8 25.6-12.8h409.6c12.8 0 19.2 0 25.6 12.8 51.2 83.2 96 166.4 147.2 243.2 0 0 0 6.4 6.4 12.8h-160c-6.4 0-12.8-6.4-19.2-12.8l-57.6-96c-6.4-12.8-12.8-19.2-25.6-19.2h-224c-12.8 0-19.2 6.4-25.6 12.8-38.4 64-70.4 134.4-108.8 198.4-6.4 12.8-6.4 19.2 0 25.6l115.2 211.2c6.4 12.8 12.8 12.8 25.6 12.8h204.8c12.8 0 19.2-6.4 25.6-12.8 19.2-32 38.4-57.6 51.2-89.6-12.8 12.8-12.8 6.4-6.4 0z" fill="#13b706" /></svg>