<?xml version="1.0" standalone="no"?><!DOCTYPE svg PUBLIC "-//W3C//DTD SVG 1.1//EN" "http://www.w3.org/Graphics/SVG/1.1/DTD/svg11.dtd"><svg class="icon" width="128px" height="128.00px" viewBox="0 0 1024 1024" version="1.1" xmlns="http://www.w3.org/2000/svg"><path d="M516.096 959.168l-160.192-9.024H355.84c-76.736 0-140.672-63.872-140.672-142.464V389.312a32 32 0 0 1 64 0v418.496c0 43.328 35.264 78.528 78.656 78.528l158.208 9.088 138.816-9.024c44.8-0.064 82.368-36.096 87.552-82.112l-0.192-414.912a32 32 0 0 1 64 0v418.496c-9.152 82.752-73.28 142.528-149.376 142.528l-140.736 8.768z" fill="#707070" /><path d="M880.192 490.432c-24.96 0-50.624-10.048-70.464-29.888l-58.88-62.272a32 32 0 0 1 46.528-43.968l58.24 61.632a36.8 36.8 0 0 0 22.656 10.496c3.712 0.064 11.392-0.128 16.832-5.568l59.392-59.392c9.344-9.344 6.784-27.84-5.632-40.192L767.36 139.904c-12.288-12.352-30.784-14.912-40.256-5.504l-59.264 59.264c0.384 0-56.064 71.936-144.064 76.992-57.792 4.032-114.688-22.656-167.872-77.312l-58.944-59.008c-9.472-9.408-27.968-6.848-40.32 5.568L75.136 321.28A36.8 36.8 0 0 0 64 344.576a21.376 21.376 0 0 0 5.568 16.896l59.328 59.392c9.344 9.344 27.712 6.848 40.128-5.568l58.624-58.496a32 32 0 0 1 45.248 45.248l-58.624 58.496c-37.44 37.44-96.064 39.936-130.624 5.632l-59.392-59.52c-34.496-34.496-32-93.12 5.568-130.688l181.504-181.312c37.504-37.568 96.192-40.064 130.752-5.568l59.264 59.328c39.808 40.896 79.616 60.48 118.208 58.368 58.688-3.136 99.968-54.848 100.352-55.424l61.888-62.272c34.56-34.496 93.312-32 130.752 5.568l181.504 181.312c37.568 37.504 40.064 96.128 5.696 130.688l-59.456 59.392a83.84 83.84 0 0 1-60.096 24.384z" fill="#707070" /></svg>