<?xml version="1.0" standalone="no"?><!DOCTYPE svg PUBLIC "-//W3C//DTD SVG 1.1//EN" "http://www.w3.org/Graphics/SVG/1.1/DTD/svg11.dtd"><svg class="icon" width="128px" height="128.00px" viewBox="0 0 1024 1024" version="1.1" xmlns="http://www.w3.org/2000/svg"><path d="M865.043197 361.817536c-1.979074-4.678556-4.067642-9.29469-6.221702-13.873985-0.00307-0.00614-0.00614-0.01228-0.00921-0.01842-18.757203-39.871079-44.096311-75.934436-75.509764-107.345844-35.025725-35.024701-75.816756-62.525032-121.240295-81.737606-47.038316-19.895119-96.993055-29.982872-148.477636-29.982872-51.485605 0-101.441367 10.087753-148.480706 29.982872-4.967128 2.100848-9.867742 4.318352-14.722306 6.616698-0.137123 0.066515-0.277316 0.122797-0.412392 0.192382-39.379892 18.697851-75.019601 43.842531-106.10662 74.92955-35.025725 35.024701-62.528102 75.81471-81.740676 121.239272-19.896142 47.037293-29.984918 96.993055-29.984918 148.477636 0 51.486628 10.087753 101.44239 29.983895 148.481729 19.213597 45.424562 46.714951 86.215594 81.740676 121.240295 35.025725 35.025725 75.816756 62.526055 121.241318 81.738629 3.742231 1.583055 7.505951 3.096525 11.285021 4.555759 2.295276 1.51347 4.943592 2.52552 7.794523 2.913353 41.386596 14.945387 84.819804 22.514783 129.401162 22.514783 51.484581 0 101.43932-10.086729 148.477636-29.983895 45.424562-19.212574 86.214571-46.712905 121.240295-81.738629 35.025725-35.025725 62.527079-75.816756 81.739653-121.240295 19.896142-47.039339 29.984918-96.995101 29.984918-148.481729C895.028115 458.811614 884.939339 408.855852 865.043197 361.817536zM407.317311 509.390569c0-58.82578 47.859008-106.684788 106.684788-106.684788 58.839083 0 106.708324 47.859008 106.708324 106.684788 0 43.475164-26.140357 80.9558-63.526849 97.565083-1.992377 0.467651-3.858888 1.24434-5.553483 2.279926-11.707646 4.426823-24.388457 6.857175-37.627992 6.857175C455.176318 616.092753 407.317311 568.225559 407.317311 509.390569zM170.00851 510.296195c0-37.138852 5.858428-73.377194 17.129122-107.664092l229.381248 0.11461c-8.262174 7.559163-15.644305 16.062837-21.976524 25.338085L185.404152 612.486622C175.276491 579.823712 170.00851 545.466206 170.00851 510.296195zM653.442918 547.613102 834.540486 387.212926c14.851243 38.764885 22.617114 80.326467 22.617114 123.08327 0 33.147958-4.686742 65.571415-13.70207 96.53666l-222.449371-0.319272C636.077412 589.92579 647.346059 569.828057 653.442918 547.613102zM756.524644 267.358187c25.031093 25.03007 45.702901 53.252855 61.680804 83.734076L657.677359 493.272473c-3.648087-32.724309-18.262946-62.181201-40.079834-84.606956L617.597525 182.701089C669.449473 199.09957 716.96465 227.799216 756.524644 267.358187zM580.072887 173.129082c-0.213871 1.13894-0.337691 2.309602-0.337691 3.510964l0 204.01758c-0.88516-0.454348-1.777483-0.895393-2.673899-1.330298l-185.641047-190.32472c38.503942-14.622022 79.745229-22.274306 122.165364-22.274306C536.159748 166.728302 558.400285 168.901805 580.072887 173.129082zM270.641465 267.358187c25.104771-25.103748 53.420677-45.822628 84.005252-61.819974l155.429978 159.350265c-1.722224 0.046049-3.433192 0.130983-5.140067 0.237407l-302.847469-0.182149C218.825332 329.136206 241.858932 296.140721 270.641465 267.358187zM270.641465 753.23932c-30.187533-30.187533-54.05615-65.005526-70.963215-102.849436l170.053024-149.939941c-0.181125 2.958378-0.284479 5.937223-0.284479 8.939603 0 0.016373 0 0.032746 0 0.049119 0 0 0 0.001023 0 0.002047l-1.423419 312.254723C332.293617 804.967448 299.36874 781.966595 270.641465 753.23932zM405.827377 836.712453l1.048889-230.354412c9.955746 10.991332 21.577434 20.444635 34.458813 27.966958l195.057511 197.031469c-38.687114 14.781658-80.151481 22.51376-122.808 22.51376C476.411969 853.870228 440.141904 848.003614 405.827377 836.712453zM756.524644 753.23932c-24.919553 24.919553-53.000098 45.518706-83.324754 61.466933L514.06452 653.962246c18.58938-0.008186 36.368302-3.543709 52.705386-9.970072l263.36934 0.272199C813.116547 684.476213 788.333094 721.43087 756.524644 753.23932z" /></svg>